<?xml version="1.0" encoding="UTF-8"?>
<svg width="240px" height="240px" viewBox="0 0 240 240" version="1.1" xmlns="http://www.w3.org/2000/svg" xmlns:xlink="http://www.w3.org/1999/xlink">
    <!-- Generator: Sketch 53.2 (72643) - https://sketchapp.com -->
    <title>add-child</title>
    <desc>Created with Sketch.</desc>
    <g id="add-child" stroke="none" stroke-width="1" fill="none" fill-rule="evenodd">
        <path d="M144.043636,75 C146.353774,71.3916873 150.397583,69 155,69 C162.179702,69 168,74.8202983 168,82 C168,89.1797017 162.179702,95 155,95 C150.397583,95 146.353774,92.6083127 144.043636,89 L60,89 L60,198 L144.043636,198 C146.353774,194.391687 150.397583,192 155,192 C162.179702,192 168,197.820298 168,205 C168,212.179702 162.179702,218 155,218 C150.397583,218 146.353774,215.608313 144.043636,212 L54.5,212 C54.1120714,212 53.7335232,211.959838 53.3682865,211.883445 C52.923671,211.960071 52.4664984,212 52,212 C47.581722,212 44,208.418278 44,204 L44,45.2476844 C40.9564608,42.8683338 39,39.1626448 39,35 C39,27.8202983 44.8202983,22 52,22 C59.1797017,22 65,27.8202983 65,35 C65,39.1626448 63.0435392,42.8683338 60,45.2476844 L60,75 L144.043636,75 Z" id="Combined-Shape" fill="#CFBAD2"></path>
        <path d="M199.122237,139 C201.521227,135.391687 205.720567,133 210.5,133 C217.955844,133 224,138.820298 224,146 C224,153.179702 217.955844,159 210.5,159 C205.720567,159 201.521227,156.608313 199.122237,153 L103.5,153 C100.462434,153 98,150.537566 98,147.5 L98,144.5 L98,92.5 C98,89.4624339 100.462434,87 103.5,87 L106.5,87 C109.537566,87 112,89.4624339 112,92.5 L112,139 L199.122237,139 Z" id="Combined-Shape" fill="#55295C"></path>
    </g>
</svg>