<?xml version="1.0" encoding="UTF-8"?>
<svg width="240px" height="240px" viewBox="0 0 240 240" version="1.1" xmlns="http://www.w3.org/2000/svg" xmlns:xlink="http://www.w3.org/1999/xlink">
    <!-- Generator: Sketch 53.2 (72643) - https://sketchapp.com -->
    <title>add-borther</title>
    <desc>Created with Sketch.</desc>
    <g id="add-borther" stroke="none" stroke-width="1" fill="none" fill-rule="evenodd">
        <path d="M153.043636,71 C155.353774,67.3916873 159.397583,65 164,65 C171.179702,65 177,70.8202983 177,78 C177,85.1797017 171.179702,91 164,91 C159.397583,91 155.353774,88.6083127 153.043636,85 L69,85 L69,133 L153.043636,133 C155.353774,129.391687 159.397583,127 164,127 C171.179702,127 177,132.820298 177,140 C177,147.179702 171.179702,153 164,153 C159.397583,153 155.353774,150.608313 153.043636,147 L69,147 L69,200 C69,204.418278 65.418278,208 61,208 C56.581722,208 53,204.418278 53,200 L53,41.2476844 C49.9564608,38.8683338 48,35.1626448 48,31 C48,23.8202983 53.8202983,18 61,18 C68.1797017,18 74,23.8202983 74,31 C74,35.1626448 72.0435392,38.8683338 69,41.2476844 L69,71 L153.043636,71 Z" id="Combined-Shape" fill="#CFBAD2"></path>
        <path d="M152.122237,194 C154.521227,190.391687 158.720567,188 163.5,188 C170.955844,188 177,193.820298 177,201 C177,208.179702 170.955844,214 163.5,214 C158.720567,214 154.521227,211.608313 152.122237,208 L58.5,208 C55.4624339,208 53,205.537566 53,202.5 L53,199.5 C53,196.462434 55.4624339,194 58.5,194 L152.122237,194 Z" id="Combined-Shape" fill="#55295C"></path>
    </g>
</svg>